<svg xmlns="http://www.w3.org/2000/svg" viewBox="0 0 400 400" width="400" height="400">
  <rect width="400" height="400" fill="#1a1a1a"/>
  <!-- Shadow -->
  <ellipse cx="200" cy="330" rx="130" ry="14" fill="#000" opacity="0.5"/>
  <!-- Sole -->
  <path d="M 72 300 Q 82 322 200 326 Q 318 322 328 300 L 320 287 Q 200 307 80 287 Z" fill="#0a1a0a"/>
  <path d="M 78 281 Q 88 302 200 306 Q 312 302 322 281 L 316 265 Q 200 284 84 265 Z" fill="#1a2a1a"/>
  <!-- Upper body - olive/earth tones Puma Stewie style -->
  <path d="M 78 265 Q 78 205 96 168 Q 116 130 155 118 L 272 112 Q 315 116 325 142 Q 334 165 326 265 Z" fill="#5C6B3A"/>
  <!-- Earth tone overlay -->
  <path d="M 84 265 Q 84 212 101 178 Q 120 142 157 130 L 268 124 Q 306 128 318 152 L 318 265 Z" fill="#4a5730" opacity="0.4"/>
  <!-- Puma design - curved panel -->
  <path d="M 100 175 Q 130 148 185 140 Q 230 134 272 145 Q 290 152 298 168 L 290 180 Q 268 165 232 160 Q 188 155 148 170 Q 118 182 100 200 Z" fill="#3a4520" opacity="0.7"/>
  <!-- Toe box accent -->
  <path d="M 78 265 Q 78 240 88 215 Q 100 190 120 175 Q 105 198 97 228 Q 92 250 92 265 Z" fill="#7A8F4A"/>
  <!-- Cream/off-white side panel Earth styling -->
  <path d="M 140 175 Q 195 160 250 162 Q 280 163 297 175 L 295 210 Q 272 198 245 196 Q 200 194 155 210 Q 138 218 130 235 L 120 230 Q 128 210 140 195 Z" fill="#D4C5A0" opacity="0.7"/>
  <!-- Ankle collar - lower cut -->
  <path d="M 152 118 Q 175 98 212 92 Q 248 88 278 100 Q 296 110 304 123 L 290 130 Q 272 118 245 114 Q 215 110 190 118 Q 172 125 160 137 Z" fill="#4a5730"/>
  <!-- Laces - earthy brown -->
  <line x1="160" y1="172" x2="242" y2="167" stroke="#8B7355" stroke-width="3" stroke-linecap="round"/>
  <line x1="159" y1="187" x2="241" y2="182" stroke="#8B7355" stroke-width="2.5"/>
  <line x1="159" y1="202" x2="241" y2="197" stroke="#8B7355" stroke-width="2.5"/>
  <line x1="159" y1="217" x2="240" y2="212" stroke="#8B7355" stroke-width="2.5"/>
  <line x1="158" y1="232" x2="240" y2="227" stroke="#8B7355" stroke-width="2.5"/>
  <!-- Eyelets -->
  <circle cx="162" cy="170" r="4" fill="#2a3318"/>
  <circle cx="244" cy="165" r="4" fill="#2a3318"/>
  <!-- Puma leaping cat silhouette on heel -->
  <path d="M 306 165 Q 316 158 322 165 Q 320 175 310 178 Q 316 182 320 190 Q 318 198 310 195 Q 302 192 305 184 Q 298 178 306 172 Z" fill="#D4C5A0" opacity="0.4"/>
  <!-- Heel -->
  <path d="M 290 126 Q 324 140 325 172 L 325 265 L 298 265 L 298 132 Z" fill="#4a5730"/>
  <!-- Heel accent stripe -->
  <rect x="315" y="150" width="5" height="80" rx="2" fill="#7A8F4A" opacity="0.8"/>
  <!-- Highlight -->
  <path d="M 96 192 Q 106 170 126 157 Q 110 178 103 205 Z" fill="white" opacity="0.1"/>
  <!-- PUMA label -->
  <text x="200" y="370" text-anchor="middle" font-family="Arial Black, sans-serif" font-size="14" font-weight="900" fill="#7A8F4A" letter-spacing="4">PUMA</text>
</svg>
