<svg xmlns="http://www.w3.org/2000/svg" viewBox="0 0 400 400" width="400" height="400">
  <rect width="400" height="400" fill="#1a1a1a"/>
  <!-- Shadow -->
  <ellipse cx="200" cy="330" rx="130" ry="14" fill="#000" opacity="0.5"/>
  <!-- Sole bottom -->
  <path d="M 70 300 Q 80 320 200 325 Q 320 320 330 300 L 320 290 Q 200 310 80 290 Z" fill="#111"/>
  <!-- Sole mid -->
  <path d="M 75 280 Q 85 300 200 305 Q 315 300 325 280 L 320 265 Q 200 285 80 265 Z" fill="#222"/>
  <!-- Outsole detail lines -->
  <line x1="120" y1="295" x2="120" y2="305" stroke="#333" stroke-width="2"/>
  <line x1="160" y1="295" x2="160" y2="308" stroke="#333" stroke-width="2"/>
  <line x1="200" y1="295" x2="200" y2="310" stroke="#333" stroke-width="2"/>
  <line x1="240" y1="295" x2="240" y2="308" stroke="#333" stroke-width="2"/>
  <line x1="280" y1="295" x2="280" y2="305" stroke="#333" stroke-width="2"/>
  <!-- Upper main body -->
  <path d="M 75 265 Q 75 200 100 165 Q 130 130 170 120 L 270 115 Q 310 118 325 140 Q 335 165 325 265 Z" fill="#E55200"/>
  <!-- Upper texture overlay -->
  <path d="M 80 265 Q 80 210 105 175 Q 132 140 172 132 L 265 127 Q 300 130 315 150 L 315 265 Z" fill="#CC4800" opacity="0.5"/>
  <!-- Toe box -->
  <path d="M 75 265 Q 75 230 85 200 Q 95 175 115 160 Q 135 148 155 145 L 170 143 Q 140 155 120 175 Q 100 200 95 265 Z" fill="#FF6B1A"/>
  <!-- Heel counter -->
  <path d="M 290 145 Q 320 155 325 190 L 325 265 L 295 265 L 295 150 Z" fill="#FF6B1A" opacity="0.7"/>
  <!-- Ankle collar -->
  <path d="M 160 120 Q 180 100 220 95 Q 260 92 290 105 Q 305 112 310 125 L 295 130 Q 275 118 240 115 Q 205 112 180 125 Q 170 130 162 138 Z" fill="#B33D00"/>
  <!-- Laces -->
  <line x1="170" y1="160" x2="240" y2="155" stroke="white" stroke-width="2.5" stroke-linecap="round"/>
  <line x1="168" y1="175" x2="238" y2="170" stroke="white" stroke-width="2.5" stroke-linecap="round"/>
  <line x1="167" y1="190" x2="236" y2="185" stroke="white" stroke-width="2.5" stroke-linecap="round"/>
  <line x1="166" y1="205" x2="235" y2="200" stroke="white" stroke-width="2.5" stroke-linecap="round"/>
  <line x1="165" y1="220" x2="234" y2="215" stroke="white" stroke-width="2.5" stroke-linecap="round"/>
  <line x1="165" y1="235" x2="233" y2="230" stroke="white" stroke-width="2.5" stroke-linecap="round"/>
  <!-- Lace tongue area -->
  <path d="M 168 155 L 243 148 L 238 255 L 165 260 Z" fill="#AA3500" opacity="0.4"/>
  <!-- Nike Swoosh -->
  <path d="M 105 230 Q 150 205 210 215 Q 250 220 270 210 Q 250 235 200 232 Q 155 228 105 250 Z" fill="white" opacity="0.9"/>
  <!-- Eyelets -->
  <circle cx="173" cy="157" r="4" fill="#333"/>
  <circle cx="240" cy="152" r="4" fill="#333"/>
  <circle cx="172" cy="172" r="4" fill="#333"/>
  <circle cx="238" cy="167" r="4" fill="#333"/>
  <circle cx="171" cy="187" r="4" fill="#333"/>
  <circle cx="237" cy="182" r="4" fill="#333"/>
  <!-- Highlight -->
  <path d="M 100 185 Q 110 165 130 155 Q 115 175 110 200 Z" fill="white" opacity="0.15"/>
  <!-- NIKE label -->
  <text x="200" y="370" text-anchor="middle" font-family="Arial Black, sans-serif" font-size="14" font-weight="900" fill="#FF6B1A" letter-spacing="4">NIKE</text>
</svg>
