<svg xmlns="http://www.w3.org/2000/svg" viewBox="0 0 400 400" width="400" height="400">
  <rect width="400" height="400" fill="#1a1a1a"/>
  <!-- Shadow -->
  <ellipse cx="200" cy="330" rx="130" ry="14" fill="#000" opacity="0.5"/>
  <!-- Sole -->
  <path d="M 70 300 Q 80 322 200 326 Q 320 322 330 300 L 322 288 Q 200 308 78 288 Z" fill="#111"/>
  <path d="M 76 280 Q 86 302 200 306 Q 314 302 324 280 L 318 265 Q 200 283 82 265 Z" fill="#1c1c1c"/>
  <!-- Upper body - black low top style -->
  <path d="M 78 265 Q 78 210 95 175 Q 115 140 155 128 L 280 122 Q 315 126 325 150 Q 332 170 325 265 Z" fill="#1a1a1a"/>
  <!-- Gold accent stripe side -->
  <path d="M 85 240 Q 95 215 115 195 Q 140 175 170 168 L 290 162 L 290 175 L 175 181 Q 145 188 122 208 Q 103 228 95 255 Z" fill="#C9A227"/>
  <!-- Second stripe -->
  <path d="M 82 265 Q 88 248 100 232 Q 82 248 82 265 Z" fill="#C9A227"/>
  <!-- Toe area -->
  <path d="M 78 265 Q 78 238 90 212 Q 100 192 118 178 Q 105 198 98 225 Q 93 248 92 265 Z" fill="#2a2a2a"/>
  <!-- Adidas 3 stripes on side -->
  <rect x="105" y="190" width="4" height="55" rx="2" fill="white" transform="rotate(-12, 107, 218)"/>
  <rect x="118" y="186" width="4" height="55" rx="2" fill="white" transform="rotate(-12, 120, 213)"/>
  <rect x="131" y="182" width="4" height="55" rx="2" fill="white" transform="rotate(-12, 133, 209)"/>
  <!-- Ankle collar -->
  <path d="M 155 128 Q 185 108 225 103 Q 265 100 295 115 Q 310 122 318 135 L 302 140 Q 283 128 248 124 Q 210 120 182 132 Q 165 140 157 150 Z" fill="#2a2a2a"/>
  <!-- Lace system - Harden style strap -->
  <path d="M 160 155 Q 200 148 245 152 L 245 170 Q 200 165 160 172 Z" fill="#C9A227"/>
  <!-- Laces -->
  <line x1="162" y1="172" x2="244" y2="168" stroke="#888" stroke-width="2" stroke-linecap="round"/>
  <line x1="162" y1="183" x2="243" y2="179" stroke="#888" stroke-width="2"/>
  <line x1="162" y1="194" x2="243" y2="190" stroke="#888" stroke-width="2"/>
  <line x1="162" y1="205" x2="242" y2="201" stroke="#888" stroke-width="2"/>
  <line x1="162" y1="216" x2="242" y2="212" stroke="#888" stroke-width="2"/>
  <line x1="162" y1="227" x2="242" y2="223" stroke="#888" stroke-width="2"/>
  <line x1="162" y1="238" x2="242" y2="234" stroke="#888" stroke-width="2"/>
  <line x1="162" y1="249" x2="241" y2="245" stroke="#888" stroke-width="2"/>
  <!-- Heel -->
  <path d="M 295 132 Q 320 143 325 170 L 325 265 L 300 265 L 300 140 Z" fill="#2a2a2a"/>
  <!-- Gold heel accent -->
  <path d="M 308 155 Q 325 165 325 195 L 325 265 L 318 265 L 318 198 Q 318 168 308 158 Z" fill="#C9A227" opacity="0.8"/>
  <!-- Adidas logo on heel -->
  <path d="M 303 230 L 315 245 L 327 230 Z" fill="#C9A227" opacity="0.0"/>
  <!-- Highlight -->
  <path d="M 98 195 Q 108 175 128 162 Q 112 180 106 205 Z" fill="white" opacity="0.08"/>
  <!-- ADIDAS label -->
  <text x="200" y="370" text-anchor="middle" font-family="Arial Black, sans-serif" font-size="13" font-weight="900" fill="#C9A227" letter-spacing="3">ADIDAS</text>
</svg>
