<svg xmlns="http://www.w3.org/2000/svg" viewBox="0 0 400 400" width="400" height="400">
  <rect width="400" height="400" fill="#1a1a1a"/>
  <!-- Shadow -->
  <ellipse cx="200" cy="330" rx="130" ry="14" fill="#000" opacity="0.5"/>
  <!-- Sole - chunky basketball sole -->
  <path d="M 68 305 Q 78 328 200 332 Q 322 328 332 305 L 324 290 Q 200 312 76 290 Z" fill="#0a0a0a"/>
  <!-- Sole pods -->
  <ellipse cx="130" cy="308" rx="30" ry="8" fill="#111"/>
  <ellipse cx="200" cy="312" rx="35" ry="9" fill="#111"/>
  <ellipse cx="270" cy="308" rx="30" ry="8" fill="#111"/>
  <path d="M 76 282 Q 86 304 200 308 Q 314 304 324 282 L 318 268 Q 200 287 82 268 Z" fill="#1a0000"/>
  <!-- Upper high-top body -->
  <path d="M 76 268 Q 76 195 98 158 Q 120 120 160 105 L 270 100 Q 310 103 325 130 Q 338 158 330 268 Z" fill="#CC0000"/>
  <!-- Red upper overlay texture -->
  <path d="M 82 268 Q 82 205 103 170 Q 124 133 162 119 L 265 114 Q 302 117 316 142 L 316 268 Z" fill="#AA0000" opacity="0.4"/>
  <!-- Black toe box -->
  <path d="M 76 268 Q 76 230 90 195 Q 108 158 140 140 Q 118 165 105 200 Q 95 230 94 268 Z" fill="#111"/>
  <!-- Ankle collar high-top -->
  <path d="M 158 105 Q 168 75 200 65 Q 232 58 265 72 Q 290 83 298 98 L 285 108 Q 268 95 242 88 Q 215 82 195 88 Q 175 93 165 108 Z" fill="#880000"/>
  <!-- Dynamic cutout/overlay panel -->
  <path d="M 140 155 Q 180 135 240 132 Q 275 130 295 145 L 290 165 Q 268 150 237 153 Q 195 156 155 175 Z" fill="#111" opacity="0.8"/>
  <!-- Laces -->
  <line x1="162" y1="175" x2="242" y2="170" stroke="#ddd" stroke-width="2.5" stroke-linecap="round"/>
  <line x1="161" y1="190" x2="241" y2="185" stroke="#ddd" stroke-width="2.5"/>
  <line x1="161" y1="205" x2="240" y2="200" stroke="#ddd" stroke-width="2.5"/>
  <line x1="160" y1="220" x2="240" y2="215" stroke="#ddd" stroke-width="2.5"/>
  <line x1="160" y1="235" x2="239" y2="230" stroke="#ddd" stroke-width="2.5"/>
  <line x1="160" y1="250" x2="239" y2="245" stroke="#ddd" stroke-width="2.5"/>
  <!-- Eyelets -->
  <circle cx="164" cy="173" r="3.5" fill="#222"/>
  <circle cx="244" cy="168" r="3.5" fill="#222"/>
  <circle cx="163" cy="188" r="3.5" fill="#222"/>
  <circle cx="243" cy="183" r="3.5" fill="#222"/>
  <!-- Jumpman on heel area -->
  <text x="305" y="200" text-anchor="middle" font-size="28" fill="#111" opacity="0.6">✦</text>
  <!-- Side panel black geometric -->
  <path d="M 200 175 Q 240 165 285 168 L 282 215 Q 240 210 198 220 Z" fill="#111" opacity="0.5"/>
  <!-- Red zig-zag accent -->
  <path d="M 95 230 L 115 215 L 135 230 L 155 215 L 175 230" stroke="#FF2222" stroke-width="3" fill="none" stroke-linecap="round"/>
  <!-- Heel shape -->
  <path d="M 290 110 Q 325 125 330 158 L 330 268 L 302 268 L 302 118 Z" fill="#880000"/>
  <!-- Highlight -->
  <path d="M 95 188 Q 105 165 128 150 Q 110 172 103 200 Z" fill="white" opacity="0.12"/>
  <!-- JORDAN label -->
  <text x="200" y="370" text-anchor="middle" font-family="Arial Black, sans-serif" font-size="13" font-weight="900" fill="#CC0000" letter-spacing="2">JORDAN</text>
</svg>
